<svg xmlns="http://www.w3.org/2000/svg" xmlns:xlink="http://www.w3.org/1999/xlink" width="110" height="92" viewBox="0 0 110 92">
    <defs>
        <path id="a" d="M.052.022h60.486v33.21H.052z"/>
    </defs>
    <g fill="none" fill-rule="evenodd">
        <path fill="#FFF" d="M30.97 0H9.495C4.255 0 0 4.268 0 9.508v72.835c0 5.249 4.255 9.522 9.494 9.522h21.461c5.239 0 9.516-4.273 9.516-9.522V9.508c0-5.24-4.264-9.508-9.5-9.508"/>
        <path fill="#1D428A" d="M30.047 80.948c-1.166-1.043-.387-1.483-.433-1.895-.77-3.181-3.293-5.106-1.988-6.156-.322-1.05-.977-2.37-.953-2.368-3.933-2.261-7.28-5.935-7.85-6.474-.69-.75-1.864-1.504-2.084-2.114-.946-.869-5.581-7.454-6.66-9.88l-1.882-.266c-.855-3.501-3.712-6.435-3.782-9.945-.027-1.327.6-4.17.833-4.738.23-.574 1.324-1.518 1.324-1.518v-.94c-4.103.117-2.924-.302-3.631-1.9-.496-1.107-.14-1.35.038-2.117.551-2.265 2.38-5.758 3.137-7.346.231-.8 1.022-2.732 1.022-2.732 3.058-6.237 4.2-5.778 7.833-6.13l.179-.258c3.64-.158 3.044-.433 3.557-3.945-.53.228-.688-1.1-.688-1.1-.29-1.998.552-1.619.952-1.659.085-3.286.421-4.32 2.787-5.226H9.498c-4.01 0-7.26 3.257-7.26 7.272v72.83c0 4.02 3.25 7.276 7.26 7.276h21.473c-2.458-1.33-1.007-3.864-.924-8.671"/>
        <path fill="#C8102E" d="M25.643 16.841l.023.31c.655.383.987.694 1.647 1.12 1.752 1.104 3.909 3.067 3.637 9.83.49 1.474.708 4.373 1.162 5.303.912 1.81 1.52 2.99 1.787 4.7 0 0 .263 2.662.606 2.854 1.81.41 1.287.588 1.552.899.281.364 1.327.347 1.327 1.323.363.486.631.991.836 1.517V9.508c0-4.01-3.257-7.266-7.25-7.266h-6.939c1.116.396 1.744.865 2.111 1.608.897.078 1.963 2.089.303 5.06.735.49.161 1.222-.366 2.073-.155.273-.324.756-.815.725-.63 1.327-1.39 2.614-1.965 2.695-.174.215-.301.787-.04 1.055.845.38 1.875.9 2.384 1.383M38.22 49.465a6.465 6.465 0 0 1-6.024 4.083 6.47 6.47 0 0 1-6.47-6.478 6.471 6.471 0 0 1 4.944-6.305c-.746-1.869-2.32-4.899-2.788-5.894-.443-.986-1.51-7.15-1.74-8.368-.052-.266-2.791 1.592-2.796 1.707-.16.156-2.056 5.112-2.135 5.38-.038.17-.043.831-.043.831s.932.115 1.468 1.744c.53 1.626 2.15 7.563 2.15 7.563s-.44.454-.458.426c2.044 6.853 1.33 9.803 2.247 11.812 1.153 2.833 1.464 2.46 2.453 4.842.71 1.734 1.5 8.557 1.765 8.86 1.103 1.4 1.697 2.496 1.697 3.287 0 .794-.935 3.144-.594 4.513.207.805.315 2.61.69 2.953 0 0 .342.678.174.978-.048.105-.146.262-.102.386.608 2.152 2.572 5.822-.609 7.743h.068c3.472-.538 6.102-3.521 6.102-7.185V49.465z"/>
        <path fill="#FFF" d="M52.675 29.498h-3.223V2.06h4.988l3.338 22.634c-.499-5.38-1.151-14.064-1.151-18.637V2.06h3.223v27.438h-4.566l-3.07-21.981c.269 4.918.461 10.798.461 14.103v7.878zM65.375 17.585v8.454h.614c1.15 0 1.496-.653 1.496-1.96v-4.65c0-1.344-.422-1.844-1.65-1.844h-.46zm0-12.066v9.068h.46c1.304 0 1.65-.5 1.65-1.998V7.364c0-1.269-.383-1.845-1.496-1.845h-.614zm-3.683 23.979V2.06h4.565c3.032 0 4.912 1.653 4.912 5.495v4.036c0 2.497-.768 3.765-1.842 4.419 1.074.69 1.842 1.921 1.842 4.035v3.996c0 3.766-1.996 5.457-4.912 5.457h-4.565zM75.922 21.236h1.957l-.307-5.035c-.116-1.998-.422-8.338-.652-11.758h-.154L76.23 16.2l-.307 5.035zm2.149 3.112h-2.303l-.307 5.15H71.74L74.425 2.06h5.218l2.61 27.437h-3.876l-.306-5.149zM54.081 81.326c3.109 0 4.913-1.845 4.913-5.613v-8.148c0-3.768-1.804-5.536-4.913-5.536h-4.567v27.446h3.684v-8.15h.883zm-.269-15.837c1.152 0 1.497.653 1.497 1.96v8.649c0 1.268-.345 1.922-1.497 1.922h-.614V65.489h.614zm12.395 23.986h3.109V73.177c0-3.96-1.266-5.459-4.567-5.459-3.147 0-4.567 1.307-4.567 5.228v2.69h3.607v-2.69c0-1.538.23-1.922.921-1.922.691 0 .922.346.922 1.922v4.305c-3.455-.461-5.527 1.038-5.527 4.42v4.267c0 2.614 1.036 3.767 2.955 3.767 1.305 0 2.226-.692 2.802-1.537.115.5.23 1 .345 1.307zm-2.418-4.69v-3.306c0-1.383.461-1.883 1.843-1.922v6.65c-.307.116-.614.193-.883.193-.806 0-.96-.615-.96-1.615zm12.359.154c0 1.076-.192 1.614-.921 1.614-.807 0-.922-.615-.922-1.614V82.44h-3.684v2.23c0 3.728 1.343 5.035 4.529 5.035 3.185 0 4.682-1.845 4.682-5.304 0-1.922-.806-4.152-2.917-6.65-1.88-2.23-2.61-3.498-2.61-5.19 0-1.153.27-1.69.96-1.69s.883.46.883 1.998v2.306h3.646v-2.421c0-3.806-1.382-5.036-4.606-5.036-3.3 0-4.567 2.153-4.567 5.228 0 2.767 1.266 4.959 3.07 7.073 1.804 2.075 2.457 3.536 2.457 4.92zm10.4 0c0 1.076-.192 1.614-.921 1.614-.806 0-.922-.615-.922-1.614V82.44h-3.684v2.23c0 3.728 1.344 5.035 4.529 5.035 3.185 0 4.682-1.845 4.682-5.304 0-1.922-.806-4.152-2.917-6.65-1.88-2.23-2.61-3.498-2.61-5.19 0-1.153.27-1.69.96-1.69s.883.46.883 1.998v2.306h3.646v-2.421c0-3.806-1.382-5.036-4.606-5.036-3.3 0-4.567 2.153-4.567 5.228 0 2.767 1.267 4.959 3.07 7.073 1.804 2.075 2.457 3.536 2.457 4.92z"/>
        <g transform="translate(49.462 31.998)">
            <mask id="b" fill="#fff">
                <use xlink:href="#a"/>
            </mask>
            <path fill="#FFF" d="M6.768 24.007H3.736V.022H.052v27.445h6.716v-3.46zm10.247-1.652v-3.268h-3.684v3.69c0 1.23-.23 1.615-.922 1.615-.69 0-.92-.385-.92-1.615v-5.074h5.526v-6.65c0-4.343-1.727-5.342-4.606-5.342-2.878 0-4.605.999-4.605 5.343v11.3c0 4.344 1.727 5.344 4.605 5.344 2.879 0 4.606-1 4.606-5.343zM11.488 10.63c0-1.23.27-1.615.921-1.615.653 0 .922.385.922 1.615v4.651h-1.843v-4.651zM24.73 27.467h3.109V11.17c0-3.96-1.267-5.458-4.567-5.458-3.147 0-4.567 1.307-4.567 5.227v2.691h3.607v-2.69c0-1.538.23-1.923.921-1.923.691 0 .922.346.922 1.922v4.306c-3.455-.462-5.527 1.037-5.527 4.42v4.267c0 2.614 1.036 3.767 2.955 3.767 1.305 0 2.226-.692 2.802-1.538.115.5.23 1 .345 1.307zm-2.418-4.69v-3.305c0-1.384.461-1.884 1.843-1.922v6.65c-.307.115-.614.192-.883.192-.806 0-.96-.615-.96-1.615zm16.926 6.228c0-2.499-1.228-3.614-3.608-3.921-2.61-.308-3.377-.461-3.377-1.153 0-.077.038-.192.115-.27.499.116 1.036.154 1.65.154 2.917 0 4.606-.999 4.606-5.343v-7.418c0-.73-.039-1.346-.154-1.884l.844-.23c.116-1 .23-2 .23-2.96 0-.193-.114-.27-.306-.27-.845 0-1.497.347-1.88.962-.807-.73-1.92-.961-3.34-.961-2.878 0-4.605.999-4.605 5.343v7.418c0 2.46.575 3.883 1.573 4.613-.806.576-1.343 1.345-1.343 2.306 0 1.038.46 1.768 1.228 2.268-.96.577-1.689 1.5-1.689 2.576 0 1.999 1.727 2.998 5.143 2.998 3.454 0 4.913-1.883 4.913-4.228zM34.938 10.63v8.226c0 1.268-.192 1.614-.92 1.614-.653 0-.922-.346-.922-1.614V10.63c0-1.23.307-1.615.921-1.615.691 0 .921.385.921 1.615zm-3.07 18.604c0-.384.077-.692.269-1a7.412 7.412 0 0 0 1.957.347c1.535.115 1.996.269 1.996.922 0 .807-.691 1.077-1.842 1.077-1.229 0-2.38-.346-2.38-1.346zm14.738-1.768h3.11V5.941H46.03v18.297a3.292 3.292 0 0 1-.921.154c-.653 0-.922-.385-.922-1.269V5.941h-3.684V24.2c0 2.498 1.267 3.498 2.879 3.498 1.42 0 2.302-.77 2.878-1.538.115.538.23 1 .345 1.307zm13.932-5.112v-3.268h-3.684v3.69c0 1.23-.23 1.615-.921 1.615-.691 0-.921-.385-.921-1.615v-5.074h5.526v-6.65c0-4.343-1.727-5.342-4.605-5.342-2.879 0-4.606.999-4.606 5.343v11.3c0 4.344 1.727 5.344 4.606 5.344 2.878 0 4.605-1 4.605-5.343zM55.012 10.63c0-1.23.268-1.615.92-1.615.653 0 .922.385.922 1.615v4.651h-1.842v-4.651z" mask="url(#b)"/>
        </g>
    </g>
</svg>
