<svg xmlns="http://www.w3.org/2000/svg" xmlns:xlink="http://www.w3.org/1999/xlink" width="24" height="24" viewBox="0 0 24 24">
    <defs>
        <path id="a" d="M3.227 15.717c-.26.075-.52-.037-.595-.297v-.037c-.074-.26.037-.52.297-.595.26-.074.52.037.595.298v.037a.506.506 0 0 1-.297.594zm.93.818c-.15-.26-.447-.334-.67-.186-.223.15-.297.41-.186.632v.038c.149.223.409.297.67.185.26-.148.334-.446.185-.669zm.929 1.301c-.186-.223-.484-.26-.67-.074-.186.186-.223.483-.074.67v.036c.186.186.483.223.67.075.222-.223.222-.52.074-.707zm2.416 2.008c-.26-.149-.558-.074-.67.149a.534.534 0 0 0 .187.669h.037c.223.148.52.037.632-.186.111-.223.037-.52-.186-.632zm-4.424-6.245c-.037-.298-.297-.447-.558-.41a.448.448 0 0 0-.371.558v.037c.037.26.297.446.557.372.26-.074.446-.297.372-.557zm3.123 5.353a.517.517 0 0 0-.707.037c-.185.186-.148.483.075.669h.037c.186.186.483.149.67-.074a.464.464 0 0 0-.075-.632zm-3.309-9.74c.26.074.52-.037.595-.298v-.037c.074-.26-.037-.52-.297-.594-.26-.075-.52.037-.595.297v.037c-.075.223.037.52.297.595zm.595-1.524c.223.148.52.037.632-.186v-.037c.149-.223.037-.52-.186-.67-.223-.148-.52-.037-.67.186v.038a.6.6 0 0 0 .224.669zm-.967 3.16c.26.037.52-.112.558-.372v-.037c.037-.26-.111-.52-.372-.558-.26-.037-.52.112-.557.372v.037c-.037.26.148.52.371.558zm.447 1.19c0-.298-.224-.521-.484-.521A.492.492 0 0 0 2 12v.037c0 .26.223.483.483.483.26-.037.484-.223.484-.483zm14.832 6.876c-.223.186-.26.484-.074.67.186.186.483.223.67.074h.036c.186-.186.223-.483.075-.67-.186-.222-.484-.222-.707-.074zm-2.713 1.599c-.26.112-.41.372-.298.632.074.26.372.372.595.297h.037c.26-.074.372-.371.297-.594-.111-.298-.371-.447-.631-.335zm1.45-.67c-.26.15-.335.447-.187.67.15.223.41.297.632.186h.038c.223-.149.297-.409.185-.67-.148-.26-.446-.334-.669-.185zm-2.975 1.079c-.297.037-.446.297-.409.558.038.26.298.446.558.371h.037a.448.448 0 0 0 .372-.557.448.448 0 0 0-.558-.372zM5.048 6.2a.517.517 0 0 0-.037-.707c-.186-.185-.483-.148-.669.075v.037c-.186.186-.149.483.074.67.186.148.484.148.632-.075zm5.39 14.72c-.297-.036-.52.112-.594.373-.037.26.111.52.372.557h.037c.26.037.52-.111.557-.371a.448.448 0 0 0-.371-.558zm-1.524-.408c-.26-.112-.557.037-.631.26-.075.26.037.52.297.595h.037c.26.074.52-.037.595-.297.074-.186-.037-.484-.298-.558zm10-2.714a.517.517 0 0 0 .038.707c.186.185.483.148.669-.075l.037-.037c.186-.186.149-.483-.074-.67-.186-.148-.484-.11-.67.075zM12 21.033c-.297 0-.52.224-.52.484s.223.483.483.483.483-.223.483-.483-.186-.484-.446-.484zm5.8-15.985c.222.186.52.149.706-.037a.445.445 0 0 0-.075-.669h-.037a.445.445 0 0 0-.67.074c-.148.15-.148.484.075.632zm3.642 8.142c-.26-.038-.52.111-.557.371v.038c-.037.26.111.52.372.557.26.037.52-.111.557-.372v-.037a.448.448 0 0 0-.372-.557zm-.557-2.789c.037.298.297.447.557.41a.448.448 0 0 0 .372-.558v-.037a.448.448 0 0 0-.557-.372c-.224.037-.41.297-.372.557zm-1.97-4.237c.185.223.483.26.669.074.186-.186.223-.483.074-.67v-.036c-.186-.186-.483-.223-.67-.075-.222.186-.26.52-.074.707zm1.56 2.713c.112.26.373.41.633.298.26-.112.372-.372.297-.595v-.037c-.074-.26-.372-.372-.595-.298-.297.112-.409.372-.334.632zM22 12c0-.297-.223-.52-.483-.52a.492.492 0 0 0-.484.483v.074c0 .26.224.483.484.483s.483-.223.483-.483V12zm-2.193-4.535c.148.26.446.334.669.186.223-.15.297-.41.186-.67v-.037c-.149-.223-.41-.297-.67-.186-.222.186-.297.446-.185.707zm1.3 7.36c-.26-.074-.52.037-.594.298v.037c-.074.26.037.52.297.595.26.074.52-.038.595-.298v-.037c.075-.26-.037-.52-.297-.595zM16.499 4.156c.26.149.558.074.67-.149.148-.223.036-.52-.187-.632h-.037c-.223-.148-.52-.037-.632.186-.111.149-.037.446.186.595zm-6.097-1.078c.298-.037.447-.297.41-.558a.448.448 0 0 0-.558-.371h-.037a.448.448 0 0 0-.372.557c.037.26.297.446.557.372zM7.465 4.193c.26-.148.334-.446.186-.669-.15-.223-.41-.297-.632-.186H6.98c-.223.149-.297.41-.185.67a.534.534 0 0 0 .669.185zm13.01 12.156c-.222-.148-.52-.037-.631.186v.037c-.149.224-.037.52.186.67.223.148.52.037.669-.186v-.037c.074-.26 0-.558-.223-.67zM6.165 5.086c.223-.186.26-.484.074-.67-.186-.186-.483-.223-.67-.074h-.036c-.186.186-.223.483-.075.67.223.222.52.26.707.074zm2.713-1.562c.26-.111.41-.372.298-.632-.112-.26-.372-.372-.595-.297h-.037c-.26.074-.372.372-.298.595.112.297.372.409.632.334zm6.171-.037c.26.112.558-.037.632-.26.075-.26-.037-.52-.297-.595h-.037c-.26-.074-.52.037-.595.297-.074.186.074.484.297.558zm-3.085-.52a.469.469 0 0 0 .483-.484.492.492 0 0 0-.483-.483h-.037a.492.492 0 0 0-.484.483c.038.26.26.484.52.484zm1.561.111c.298.037.52-.111.558-.372.037-.26-.112-.52-.372-.557h-.037c-.26-.037-.52.111-.558.371 0 .26.149.52.41.558zM19.026 12A7.02 7.02 0 0 1 12 19.026 7.02 7.02 0 0 1 4.974 12 7.02 7.02 0 0 1 12 4.974c3.866 0 7.026 3.16 7.026 7.026zm-.706 0a6.264 6.264 0 0 0-1.859-4.461A6.264 6.264 0 0 0 12 5.68 6.264 6.264 0 0 0 7.539 7.54 6.264 6.264 0 0 0 5.68 12c0 1.747.707 3.309 1.859 4.461A6.264 6.264 0 0 0 12 18.32a6.264 6.264 0 0 0 4.461-1.859A6.264 6.264 0 0 0 18.32 12zm-3.086 0A3.237 3.237 0 0 1 12 15.234 3.237 3.237 0 0 1 8.766 12 3.237 3.237 0 0 1 12 8.766 3.237 3.237 0 0 1 15.234 12zm-.892 0A2.332 2.332 0 0 0 12 9.658 2.332 2.332 0 0 0 9.658 12 2.332 2.332 0 0 0 12 14.342 2.332 2.332 0 0 0 14.342 12z"/>
    </defs>
    <use fill="#C8102E" fill-rule="evenodd" xlink:href="#a"/>
</svg>
